<?xml version="1.0" encoding="UTF-8"?>
<svg version="1.1" xmlns="http://www.w3.org/2000/svg" width="1920" height="1080">
<path d="M0 0 C4.09341499 -0.02469575 8.18680121 -0.04285793 12.28027344 -0.05493164 C13.67318477 -0.0599643 15.0660908 -0.06679098 16.45898438 -0.07543945 C18.45961246 -0.08755152 20.46027888 -0.09270412 22.4609375 -0.09765625 C23.66540527 -0.10289307 24.86987305 -0.10812988 26.11083984 -0.11352539 C29 0 29 0 31 1 C31 1.66 31 2.32 31 3 C31.56589844 3.21785156 32.13179687 3.43570312 32.71484375 3.66015625 C35.74224102 5.43519431 37.40076645 7.68321004 39.5625 10.4375 C42.34538164 14.11254259 42.34538164 14.11254259 45.61425781 17.31787109 C47.59822397 19.72617392 47.34193341 21.45819522 47.29296875 24.54296875 C47.2784668 26.15268555 47.2784668 26.15268555 47.26367188 27.79492188 C47.23853516 28.91447266 47.21339844 30.03402344 47.1875 31.1875 C47.16719727 32.88422852 47.16719727 32.88422852 47.14648438 34.61523438 C47.11109958 37.41063317 47.06172948 40.20507892 47 43 C50.72859497 43.8461678 52.62052293 44.16783895 56.0625 42.375 C56.71347656 42.05273438 57.36445312 41.73046875 58.03515625 41.3984375 C60.80341839 39.42818333 62.26062377 37.97575404 64 35 C64.48009489 31.38122421 64.37719244 27.82960652 64.25 24.1875 C64.23195313 23.20845703 64.21390625 22.22941406 64.1953125 21.22070312 C64.14832887 18.81279229 64.08265694 16.40690665 64 14 C62.83082031 14.05800781 61.66164063 14.11601563 60.45703125 14.17578125 C58.9088942 14.22269449 57.36071383 14.26819298 55.8125 14.3125 C55.04357422 14.35439453 54.27464844 14.39628906 53.48242188 14.43945312 C49.18960993 14.53157355 47.56073923 14.45954748 44.12109375 11.640625 C43.42113281 10.76921875 42.72117187 9.8978125 42 9 C40.63875 7.7315625 40.63875 7.7315625 39.25 6.4375 C37.01334894 4.01446135 36.6004681 3.08718925 36 0 C86.1762485 -0.02286411 136.35249648 -0.04049707 186.52874916 -0.05106533 C192.44584255 -0.05231611 198.36293593 -0.05361043 204.2800293 -0.05493164 C205.45806921 -0.05519395 206.63610912 -0.05545626 207.8498472 -0.05572652 C226.95129238 -0.06008372 246.05273456 -0.06797154 265.15417796 -0.0771528 C284.73842751 -0.08648796 304.32267548 -0.09205532 323.90692717 -0.09408849 C336.00185088 -0.09546401 348.09676613 -0.09981613 360.19168723 -0.10791647 C368.47359123 -0.11318223 376.75549082 -0.11480468 385.03739636 -0.11350138 C389.82323079 -0.11285773 394.60905038 -0.11387849 399.3948822 -0.11920547 C403.76872538 -0.12403863 408.14254361 -0.12433921 412.51638789 -0.12089889 C414.10589769 -0.12047312 415.69540899 -0.12176956 417.2849158 -0.12488318 C419.43121124 -0.1288459 421.5774144 -0.1267642 423.72370815 -0.12304783 C424.92020691 -0.12342755 426.11670567 -0.12380727 427.34946197 -0.1241985 C430 0 430 0 431 1 C431.12514928 2.97619447 431.1757276 4.95738173 431.1875 6.9375 C431.20167969 8.01902344 431.21585938 9.10054688 431.23046875 10.21484375 C431 13 431 13 429 15 C424.05 15 419.1 15 414 15 C414 36.12 414 57.24 414 79 C409.05 76.525 409.05 76.525 404 74 C403.01 73.67 402.02 73.34 401 73 C401 72.34 401 71.68 401 71 C400.01 70.67 399.02 70.34 398 70 C398 51.85 398 33.7 398 15 C388.42467152 14.77800769 388.42467152 14.77800769 385.5 19 C385.005 19.99 384.51 20.98 384 22 C383.34 22.33 382.68 22.66 382 23 C382.65326028 25.85000806 383.56443095 28.46669435 384.625 31.1875 C387.1600387 38.75533612 385.41154748 45.02857689 382 52 C381.34 52 380.68 52 380 52 C379.4465236 54.07553648 379 55.84365964 379 58 C379 58.66 379 59.32 379 60 C379.598125 60.144375 380.19625 60.28875 380.8125 60.4375 C384.81316746 61.46624306 387.33885013 62.55291476 389.97265625 65.8671875 C392.26262314 70.62126325 391.78912654 75.90485225 391 81 C389.21893642 85.36123553 386.52372701 88.88249353 383 92 C382.34 92 381.68 92 381 92 C381 92.66 381 93.32 381 94 C379.0083937 96.36156412 376.94705792 97.71809999 374.1875 99.0625 C373.54167969 99.38347656 372.89585937 99.70445312 372.23046875 100.03515625 C364.27825161 103.47508205 355.73040634 104.66181784 347.265625 102.20703125 C345.08440073 101.25183069 343.05176111 100.20562886 341 99 C340.071875 98.505 339.14375 98.01 338.1875 97.5 C334.73517474 95.13269125 332.37676044 93.38145494 331.25 89.25 C331.1675 88.5075 331.085 87.765 331 87 C330.34 87 329.68 87 329 87 C328.0297111 84.08913331 327.83532153 82.09776315 327.8125 79.0625 C327.79832031 78.20785156 327.78414062 77.35320312 327.76953125 76.47265625 C328.01296444 73.86090697 328.6821732 72.24499348 330 70 C330.66 70 331.32 70 332 70 C332 69.34 332 68.68 332 68 C332.804375 67.71125 333.60875 67.4225 334.4375 67.125 C337.1326468 66.26737432 337.1326468 66.26737432 338 64 C339.98 64.66 341.96 65.32 344 66 C343.443125 66.680625 342.88625 67.36125 342.3125 68.0625 C340.60519871 71.03830162 340.60519871 71.03830162 342 74.5 C343.72920319 77.96595748 346.19400429 80.34567973 349 83 C349 83.66 349 84.32 349 85 C350.65 85.33 352.3 85.66 354 86 C354 86.66 354 87.32 354 88 C361.48685152 88.93743995 367.74447067 89.25991897 375 87 C375.33 86.34 375.66 85.68 376 85 C376.66 85 377.32 85 378 85 C378 82.03 378 79.06 378 76 C377.34 76 376.68 76 376 76 C376 75.34 376 74.68 376 74 C371.39472931 72.61298183 371.39472931 72.61298183 366.6875 71.6875 C365 71 365 71 363.75 68.4375 C363.5025 67.633125 363.255 66.82875 363 66 C361.9275 66.165 360.855 66.33 359.75 66.5 C356 67 356 67 352 67 C352 66.34 352 65.68 352 65 C351.319375 65.103125 350.63875 65.20625 349.9375 65.3125 C345.85461359 64.87815038 342.86587646 62.93194854 340 60 C340 59.01 340 58.02 340 57 C339.34 57 338.68 57 338 57 C333.49838726 50.81028248 332.09740168 43.5128037 333 36 C334.20827872 32.40919985 335.87253968 29.35587423 337.9375 26.1875 C338.44152344 25.39730469 338.94554687 24.60710938 339.46484375 23.79296875 C340.22474609 22.90544922 340.22474609 22.90544922 341 22 C341.99 22 342.98 22 344 22 C344 21.34 344 20.68 344 20 C346.90548882 17.95830515 348.40142046 17 352 17 C352 16.34 352 15.68 352 15 C329.89 15 307.78 15 285 15 C285.33 17.31 285.66 19.62 286 22 C286.54527344 21.72285156 287.09054687 21.44570313 287.65234375 21.16015625 C294.80427172 17.72478572 300.97802056 15.81803955 308.75 18.25 C312.05287927 19.51677857 315.14384342 20.88091609 318 23 C318 23.66 318 24.32 318 25 C318.99 25.33 319.98 25.66 321 26 C324.41935902 29.63306896 326.23921761 33.35793732 328 38 C328.4125 39.0725 328.825 40.145 329.25 41.25 C330.86739311 49.33696554 329.19682871 56.54073301 326 64 C325.67 64.99 325.34 65.98 325 67 C324.34 67 323.68 67 323 67 C322.67 68.65 322.34 70.3 322 72 C321.34 72 320.68 72 320 72 C320 72.66 320 73.32 320 74 C319.34 74.33 318.68 74.66 318 75 C317.67 75.99 317.34 76.98 317 78 C314.9375 78.6875 314.9375 78.6875 313 79 C313 78.34 313 77.68 313 77 C311.35 76.67 309.7 76.34 308 76 C308 75.34 308 74.68 308 74 C307.278125 73.731875 306.55625 73.46375 305.8125 73.1875 C303.02409874 72.01017502 300.55904276 70.60854116 298 69 C299.5277867 65.56247993 301.50181056 62.81046312 304 60 C304.66 60 305.32 60 306 60 C306.33 59.01 306.66 58.02 307 57 C307.66 57 308.32 57 309 57 C310.485 52.545 310.485 52.545 312 48 C312.66 48 313.32 48 314 48 C313.9984714 39.46368272 313.9984714 39.46368272 311 31.6875 C306.98815409 29.43083668 303.51492398 29.19678319 299 30 C297.515 30.99 297.515 30.99 296 32 C295.01 32 294.02 32 293 32 C292.731875 32.7425 292.46375 33.485 292.1875 34.25 C291 37 291 37 289.5625 38.75 C285.34734107 44.81982886 283.84189388 52.9557727 283.9375 60.23046875 C283.94523437 61.19791016 283.95296875 62.16535156 283.9609375 63.16210938 C283.97382812 64.16048828 283.98671875 65.15886719 284 66.1875 C284.02544271 68.18093608 284.04649839 70.17443453 284.0625 72.16796875 C284.07410156 73.04735107 284.08570313 73.9267334 284.09765625 74.83276367 C284 77 284 77 283 79 C277.79128167 76.97438732 273.66462725 75.3663818 270 71 C269.48101807 68.39300537 269.48101807 68.39300537 269.45410156 65.40527344 C269.43438293 64.28441345 269.41466431 63.16355347 269.39434814 62.00872803 C269.39250519 60.20229828 269.39250519 60.20229828 269.390625 58.359375 C269.37408875 57.12205627 269.35755249 55.88473755 269.34051514 54.60992432 C269.30017615 51.32848469 269.27685239 48.0475037 269.26177979 44.76586914 C269.24219329 41.41404159 269.19989103 38.06258686 269.16015625 34.7109375 C269.08615328 28.14065667 269.03665073 21.57059109 269 15 C259.1 15.495 259.1 15.495 249 16 C250.98 17.32 252.96 18.64 255 20 C256.875 21.5625 256.875 21.5625 258 23 C258 23.99 258 24.98 258 26 C258.66 26.33 259.32 26.66 260 27 C263.64648173 36.00457733 261.97957948 47.15140869 261.625 56.625 C261.56665209 58.41012204 261.50935146 60.19527863 261.453125 61.98046875 C261.31416302 66.32080535 261.16100775 70.66042757 261 75 C258.03 74.34 255.06 73.68 252 73 C252 72.34 252 71.68 252 71 C245.91032476 69.84506159 243.54780475 70.05626687 238 73 C235.01189029 73.60879245 232.04133595 73.82873023 229 74 C228.32710937 74.05285156 227.65421875 74.10570312 226.9609375 74.16015625 C221.52879936 74.40903907 217.03103328 72.95651294 212 71 C212 70.34 212 69.68 212 69 C211.4225 68.731875 210.845 68.46375 210.25 68.1875 C205.3455244 65.59902677 203.18379551 63.41475142 201.4140625 58.125 C200.72065507 54.56638073 201.5040898 52.24113877 203 49 C207.1025641 45 207.1025641 45 210 45 C210 44.34 210 43.68 210 43 C210.66 43 211.32 43 212 43 C212.33 42.34 212.66 41.68 213 41 C214.66666667 40.66666667 216.33333333 40.33333333 218 40 C218.33 39.34 218.66 38.68 219 38 C226.7842969 34.03153491 236.60323738 33.42277583 245 36 C245.33 35.34 245.66 34.68 246 34 C239.6753842 32.2100144 233.5508985 31.45759953 227 31 C226.67 31.66 226.34 32.32 226 33 C223.0625 34.1875 223.0625 34.1875 220 35 C219.34 34.67 218.68 34.34 218 34 C217.67 34.66 217.34 35.32 217 36 C214.68152126 36.7166207 212.34680297 37.38242027 210 38 C209.01 38.495 209.01 38.495 208 39 C206.28430114 35.56860227 206.47082127 31.75235827 207 28 C209 25.9375 209 25.9375 211 25 C211.66 25.33 212.32 25.66 213 26 C212.67 22.37 212.34 18.74 212 15 C187.25 14.505 187.25 14.505 162 14 C162.33 15.65 162.66 17.3 163 19 C163.845625 18.525625 164.69125 18.05125 165.5625 17.5625 C172.05040012 14.61345449 179.88031677 13.65034698 186.73046875 15.89453125 C189.18359508 16.87370579 191.59971714 17.89823082 194 19 C194 19.66 194 20.32 194 21 C194.60328125 21.25394531 195.2065625 21.50789062 195.828125 21.76953125 C199.51134738 23.85624897 201.30133093 27.20016597 203 31 C203.38130234 33.50906355 203.26564481 35.44980987 203 38 C202.34 38 201.68 38 201 38 C201 39.32 201 40.64 201 42 C200.34 42 199.68 42 199 42 C199 42.99 199 43.98 199 45 C198.34 45 197.68 45 197 45 C197 45.66 197 46.32 197 47 C196.34 47 195.68 47 195 47 C194.67 47.99 194.34 48.98 194 50 C191.39757586 51.64820195 190.13751221 52 187 52 C187 52.66 187 53.32 187 54 C184 54 184 54 181.375 51.6875 C179 49 179 49 178 46 C177.34 45.67 176.68 45.34 176 45 C176 44.34 176 43.68 176 43 C175.34 42.67 174.68 42.34 174 42 C171.875 40.125 171.875 40.125 170 38 C170 37.01 170 36.02 170 35 C170.67546875 34.89042969 171.3509375 34.78085937 172.046875 34.66796875 C172.93890625 34.50941406 173.8309375 34.35085938 174.75 34.1875 C175.63171875 34.03667969 176.5134375 33.88585937 177.421875 33.73046875 C180.22808375 32.93537627 181.85132007 31.95334539 184 30 C184.79623822 27.90584196 184.79623822 27.90584196 185 26 C182.99875639 26.32578384 180.99897128 26.66055205 179 27 C178.071875 27.144375 177.14375 27.28875 176.1875 27.4375 C175.465625 27.623125 174.74375 27.80875 174 28 C173.67 28.66 173.34 29.32 173 30 C168.62211982 34.49308756 168.62211982 34.49308756 166.3125 36.375 C162.66718386 40.88824855 162.68942798 47.32381339 162.62109375 52.8671875 C162.60409927 53.58738068 162.5871048 54.30757385 162.56959534 55.04959106 C162.51693543 57.32464098 162.47633876 59.59967558 162.4375 61.875 C162.39355505 64.17166385 162.34696057 66.46818902 162.29469299 68.76467896 C162.26274347 70.1879725 162.23585087 71.61139018 162.21446228 73.03488159 C162.11184746 77.88815254 162.11184746 77.88815254 161 79 C158.50761431 79.12653198 156.05529559 79.18519825 153.5625 79.1875 C152.86833984 79.19974609 152.17417969 79.21199219 151.45898438 79.22460938 C149.63779099 79.22989842 147.8171308 79.12169207 146 79 C144 77 144 77 143.75949097 74.32980347 C143.76393219 73.19729156 143.76837341 72.06477966 143.77294922 70.89794922 C143.77317581 68.97618362 143.77317581 68.97618362 143.77340698 67.01559448 C143.78362105 65.61195726 143.79405305 64.2083216 143.8046875 62.8046875 C143.80841709 61.37265215 143.81126431 59.94061425 143.81326294 58.50857544 C143.82090373 54.73721283 143.84055592 50.96600396 143.8626709 47.19470215 C143.88311981 43.34727051 143.8922626 39.49981406 143.90234375 35.65234375 C143.9238015 28.10149236 143.95794268 20.55076771 144 13 C141.69 13 139.38 13 137 13 C137.00222061 13.81210434 137.00444122 14.62420868 137.00672913 15.46092224 C137.02673071 23.09828948 137.04197345 30.7356441 137.05181217 38.37303066 C137.05704031 42.29988658 137.06413669 46.22672094 137.07543945 50.15356445 C137.0862708 53.94014257 137.09227736 57.7266999 137.09487724 61.51329231 C137.09673105 62.96104319 137.10035081 64.40879288 137.10573006 65.85653496 C137.11294367 67.87757135 137.11340808 69.89862848 137.11352539 71.91967773 C137.115746 73.07217514 137.11796661 74.22467255 137.12025452 75.41209412 C137 78 137 78 136 79 C134.00200428 79.09873816 132.00042842 79.12971799 130 79.125 C128.906875 79.12757813 127.81375 79.13015625 126.6875 79.1328125 C124 79 124 79 123 78 C122.91134792 75.1156618 122.88478704 72.25537842 122.90234375 69.37109375 C122.9037587 68.50686295 122.90517365 67.64263214 122.90663147 66.75221252 C122.91224761 63.98060708 122.92480281 61.2090812 122.9375 58.4375 C122.94251292 56.5631522 122.94707619 54.68880315 122.95117188 52.81445312 C122.96222228 48.20960456 122.9794977 43.60481579 123 39 C121.10858276 38.98078491 121.10858276 38.98078491 119.17895508 38.96118164 C118.46967361 38.95397598 117.76039215 38.94677032 117.02961731 38.93934631 C114.40781542 39.01769702 112.16969083 39.61010306 109.6875 40.4375 C108.86636719 40.70433594 108.04523438 40.97117187 107.19921875 41.24609375 C106.47347656 41.49488281 105.74773437 41.74367188 105 42 C103.515 42.495 103.515 42.495 102 43 C101.67 43.99 101.34 44.98 101 46 C100.34 46 99.68 46 99 46 C99 46.99 99 47.98 99 49 C98.34 49 97.68 49 97 49 C97.020625 50.134375 97.04125 51.26875 97.0625 52.4375 C97 56 97 56 96 57 C96.03810794 58.77348504 96.15569776 60.54554939 96.3125 62.3125 C96.39113281 63.27800781 96.46976563 64.24351562 96.55078125 65.23828125 C96.98630336 67.91579545 97.75970144 69.62571419 99 72 C99 72.99 99 73.98 99 75 C99.66 75.33 100.32 75.66 101 76 C105 81.52941176 105 81.52941176 105 84 C101.98385187 82.8829081 100.35491331 81.3874224 98.375 78.9375 C96.32880603 75.99175287 96.32880603 75.99175287 94 75 C93.67 74.01 93.34 73.02 93 72 C92.34 71.67 91.68 71.34 91 71 C91 70.34 91 69.68 91 69 C90.34 68.67 89.68 68.34 89 68 C83.80256884 61.12155151 80.20709005 53.52396825 80.53125 44.78515625 C81.65801206 38.09031169 84.30285741 31.53659839 89.296875 26.83984375 C94.85239362 23 94.85239362 23 99 23 C99 22.34 99 21.68 99 21 C114.76404494 19.19101124 114.76404494 19.19101124 122 21 C122.33 18.69 122.66 16.38 123 14 C108.81 14 94.62 14 80 14 C80.08847877 21.91186499 80.17875809 29.82331285 80.28729248 37.73486328 C80.33728791 41.41890775 80.38377996 45.102921 80.421875 48.78710938 C80.45868346 52.33393703 80.50503067 55.88052221 80.55806351 59.4271431 C80.57663122 60.7819151 80.59173038 62.13673913 80.60334396 63.49158859 C80.62016509 65.38560856 80.65033616 67.27949588 80.68115234 69.17333984 C80.69447601 70.25255707 80.70779968 71.33177429 80.7215271 72.44369507 C80.74800507 75.1655864 80.74800507 75.1655864 83 77 C83 77.99 83 78.98 83 80 C83.66 80 84.32 80 85 80 C85 80.66 85 81.32 85 82 C86.485 82.495 86.485 82.495 88 83 C92.64380183 87.88194551 96.46780726 93.27465081 97.4375 100.0625 C96.42164793 106.88322106 94.04126328 110.47189911 88.81640625 114.73828125 C82.83674402 118.89189609 77.12825837 118.67418361 70 118 C66.45004939 117.03679662 63.28285574 115.64425305 60 114 C59.30261719 113.67644531 58.60523438 113.35289062 57.88671875 113.01953125 C53.11428336 110.74914937 48.17175178 108.26195485 44 105 C44 104.34 44 103.68 44 103 C42.68 102.67 41.36 102.34 40 102 C40 101.34 40 100.68 40 100 C39.1646875 99.5978125 39.1646875 99.5978125 38.3125 99.1875 C31.29090909 95.58181818 31.29090909 95.58181818 30 93 C28.515 92.505 28.515 92.505 27 92 C24.8125 90.0625 24.8125 90.0625 23 88 C23 87.34 23 86.68 23 86 C22.443125 85.95875 21.88625 85.9175 21.3125 85.875 C17.705605 84.51022892 16.26961504 82.08919824 14 79 C14 78.34 14 77.68 14 77 C17 78.5 17 78.5 20 80 C20 80.66 20 81.32 20 82 C21.32 82.33 22.64 82.66 24 83 C24 83.66 24 84.32 24 85 C25.32 85.33 26.64 85.66 28 86 C28 86.66 28 87.32 28 88 C28.56332031 88.2784375 29.12664063 88.556875 29.70703125 88.84375 C32.05459575 90.0275304 34.37617486 91.24691794 36.6875 92.5 C37.47511719 92.9228125 38.26273438 93.345625 39.07421875 93.78125 C41 95 41 95 42 97 C43.99628664 97.3548954 45.99690671 97.68578929 48 98 C50.375 99.0625 50.375 99.0625 52 100 C52 100.66 52 101.32 52 102 C52.99 101.67 53.98 101.34 55 101 C57.015625 101.375 57.015625 101.375 59.25 102 C65.01572617 103.36212948 69.53054962 102.94282669 74.8125 100.1875 C77.740859 98.17784186 78.9385367 97.30233027 80 94 C80.66 94 81.32 94 82 94 C81.67 93.01 81.34 92.02 81 91 C81.66 91 82.32 91 83 91 C82.505 87.04 82.505 87.04 82 83 C80.6696875 83.495 80.6696875 83.495 79.3125 84 C76.29076653 84.91222143 74.11626294 85.18330958 71 85 C70.67 85.66 70.34 86.32 70 87 C65.52941176 91 65.52941176 91 62 91 C62 90.34 62 89.68 62 89 C61.01 88.67 60.02 88.34 59 88 C59 87.34 59 86.68 59 86 C58.01 85.67 57.02 85.34 56 85 C51.0859662 79.97428361 51.0859662 79.97428361 50.8125 76.875 C52.96177324 73.48141068 56.47705602 71.76147199 60 70 C60.99 70.495 60.99 70.495 62 71 C62 70.34 62 69.68 62 69 C62.99 69 63.98 69 65 69 C65 65.37 65 61.74 65 58 C63.02 58.495 63.02 58.495 61 59 C57.89783624 57.96594541 57.16043182 57.28075967 55 55 C53.15659049 53.44869392 51.29458791 51.92292557 49.42578125 50.40234375 C48.95527344 49.93957031 48.48476563 49.47679687 48 49 C48 48.34 48 47.68 48 47 C47.4225 47.5775 46.845 48.155 46.25 48.75 C45.5075 49.4925 44.765 50.235 44 51 C42.948125 52.11375 42.948125 52.11375 41.875 53.25 C40 55 40 55 38 55 C38 55.66 38 56.32 38 57 C37.01 57.495 37.01 57.495 36 58 C36.309375 58.763125 36.61875 59.52625 36.9375 60.3125 C37.67893593 62.18789677 38.36228217 64.08684652 39 66 C39.99 66.495 39.99 66.495 41 67 C41.33 67.99 41.66 68.98 42 70 C42.66 70 43.32 70 44 70 C44.268125 70.969375 44.53625 71.93875 44.8125 72.9375 C45.204375 73.948125 45.59625 74.95875 46 76 C46.99 76.33 47.98 76.66 49 77 C48.33333333 81.66666667 47.66666667 86.33333333 47 91 C46.34 91 45.68 91 45 91 C45 90.34 45 89.68 45 89 C44.38125 88.79375 43.7625 88.5875 43.125 88.375 C40.15346355 86.45224112 39.86975341 84.33405473 39 81 C38.34 81 37.68 81 37 81 C34 76.61538462 34 76.61538462 34 74 C33.01 73.505 33.01 73.505 32 73 C31.67 72.01 31.34 71.02 31 70 C30.34 70 29.68 70 29 70 C27.4921875 68.1015625 27.4921875 68.1015625 25.875 65.625 C25.33617187 64.81289063 24.79734375 64.00078125 24.2421875 63.1640625 C23 61 23 61 23 59 C22.34 58.67 21.68 58.34 21 58 C20.67 57.01 20.34 56.02 20 55 C19.34 54.67 18.68 54.34 18 54 C17.34 53.34 16.68 52.68 16 52 C16 51.01 16 50.02 16 49 C15.34 49 14.68 49 14 49 C14 48.34 14 47.68 14 47 C13.34 47 12.68 47 12 47 C11.67 45.68 11.34 44.36 11 43 C10.34 43 9.68 43 9 43 C9 42.01 9 41.02 9 40 C8.34 40 7.68 40 7 40 C7.33 38.68 7.66 37.36 8 36 C10.475 35.505 10.475 35.505 13 35 C13.268125 35.639375 13.53625 36.27875 13.8125 36.9375 C14.88667752 39.33131686 14.88667752 39.33131686 18 40 C18.495 40.515625 18.99 41.03125 19.5 41.5625 C21.01472806 43.34595268 21.01472806 43.34595268 24 43 C24.33 42.34 24.66 41.68 25 41 C25.78375 40.566875 26.5675 40.13375 27.375 39.6875 C30.53434532 37.65649229 31.44928646 36.42505425 33 33 C33.35312982 29.88468287 33.28384559 26.81749631 33.1875 23.6875 C33.17396484 22.85154297 33.16042969 22.01558594 33.14648438 21.15429688 C33.11131217 19.10258502 33.05751048 17.05120725 33 15 C32.39003174 15.0314209 31.78006348 15.0628418 31.15161133 15.09521484 C28.37228898 15.22038338 25.59355934 15.29810435 22.8125 15.375 C21.85279297 15.42527344 20.89308594 15.47554687 19.90429688 15.52734375 C12.89672227 15.67282973 12.89672227 15.67282973 10.28979492 13.71679688 C8.96875 12.1171875 8.96875 12.1171875 7 9 C6.236875 8.2575 5.47375 7.515 4.6875 6.75 C3 5 3 5 3 3 C2.34 3 1.68 3 1 3 C0.67 2.01 0.34 1.02 0 0 Z M226 15 C226.33 15.66 226.66 16.32 227 17 C228.65 16.67 230.3 16.34 232 16 C232 15.67 232 15.34 232 15 C230.02 15 228.04 15 226 15 Z M369 15 C370.9254644 17.2236068 370.9254644 17.2236068 374 18 C374.33 17.01 374.66 16.02 375 15 C373.02 15 371.04 15 369 15 Z M348.375 27.125 C346.26685197 29.99974731 346.17897835 32.48009254 346 36 C347.75899062 43.67559545 351.50636649 49.67091099 358 54 C362.27983532 55.29923572 364.25338592 55.28507083 368.4375 53.6875 C371.39206365 50.58881129 371.36917636 49.85566683 371.375 45.75 C371.27877979 44.16465741 371.16281338 42.5798928 371 41 C370.34 41 369.68 41 369 41 C368.938125 40.13375 368.87625 39.2675 368.8125 38.375 C367.57609592 33.23916769 364.72407662 30.24995555 360.5 27.1875 C356.04852847 25.07305102 352.67332719 24.14923502 348.375 27.125 Z M224 48 C223.319375 48.33 222.63875 48.66 221.9375 49 C221.298125 49.33 220.65875 49.66 220 50 C219.278125 50.28875 218.55625 50.5775 217.8125 50.875 C215.79793094 51.84915847 215.79793094 51.84915847 215.375 54.0625 C215.25125 54.701875 215.1275 55.34125 215 56 C214.01 56.495 214.01 56.495 213 57 C213.99 58.485 213.99 58.485 215 60 C221.18621264 60.9540925 227.15757031 60.06919385 233 58 C233.99 57.67 234.98 57.34 236 57 C236 56.34 236 55.68 236 55 C236.78375 54.87625 237.5675 54.7525 238.375 54.625 C241.14057822 54.20882007 241.14057822 54.20882007 243 52 C243.1490712 49.9254644 243.1490712 49.9254644 242 48 C235.96598791 45.12666091 229.98712935 45.08734248 224 48 Z M244 49 C245 51 245 51 245 51 Z " fill="#2D646B" transform="translate(745,501)"/>
<path d="M0 0 C0.66 0.66 1.32 1.32 2 2 C3.67004829 1.68404492 5.33637583 1.34820041 7 1 C9.83439209 1.40491316 12.27945786 2.09315262 15 3 C15.33 3.66 15.66 4.32 16 5 C16.66 5 17.32 5 18 5 C18 6.32 18 7.64 18 9 C18.99 9.33 19.98 9.66 21 10 C21.984375 11.92578125 21.984375 11.92578125 22.75 14.3125 C23.14445312 15.48232422 23.14445312 15.48232422 23.546875 16.67578125 C24.03753502 19.19252877 23.68328118 20.57228128 23 23 C23.495 23.99 23.495 23.99 24 25 C23.34 25 22.68 25 22 25 C21.9175 25.556875 21.835 26.11375 21.75 26.6875 C20.76104459 29.73677919 19.15242534 31.65189963 17 34 C16.34 34 15.68 34 15 34 C14.67 34.99 14.34 35.98 14 37 C12.68 36.34 11.36 35.68 10 35 C10 36.32 10 37.64 10 39 C9.34 39 8.68 39 8 39 C8 38.34 8 37.68 8 37 C7.21625 37.165 6.4325 37.33 5.625 37.5 C3 38 3 38 1 38 C0.01 38.495 0.01 38.495 -1 39 C-1 38.34 -1 37.68 -1 37 C-1.639375 36.87625 -2.27875 36.7525 -2.9375 36.625 C-3.618125 36.41875 -4.29875 36.2125 -5 36 C-5.33 35.34 -5.66 34.68 -6 34 C-6.99 33.67 -7.98 33.34 -9 33 C-9 31.68 -9 30.36 -9 29 C-9.99 28.67 -10.98 28.34 -12 28 C-14.82094905 23.48648152 -14.02724105 18.97490293 -13 14 C-12.26346196 11.26718991 -11.45781128 9.49910505 -10 7 C-7.3125 6.0625 -7.3125 6.0625 -5 6 C-5 5.01 -5 4.02 -5 3 C-3.35 2.67 -1.7 2.34 0 2 C0 1.34 0 0.68 0 0 Z M-1 6 C-1 7.65 -1 9.3 -1 11 C-0.67 11 -0.34 11 0 11 C0 9.35 0 7.7 0 6 C-0.33 6 -0.66 6 -1 6 Z M8 7 C7.67 7.66 7.34 8.32 7 9 C7.66 9 8.32 9 9 9 C8.67 8.34 8.34 7.68 8 7 Z M1 8 C1.66 8.66 2.32 9.32 3 10 C3 9.34 3 8.68 3 8 C2.34 8 1.68 8 1 8 Z M10 8 C11 10 11 10 11 10 Z M-4 10 C-3 12 -3 12 -3 12 Z M-6 12 C-6.33 12.66 -6.66 13.32 -7 14 C-6.34 14 -5.68 14 -5 14 C-5.33 13.34 -5.66 12.68 -6 12 Z M3 16 C2.34 17.65 1.68 19.3 1 21 C1.66 21.66 2.32 22.32 3 23 C4.32 23 5.64 23 7 23 C7 22.34 7 21.68 7 21 C7.66 20.67 8.32 20.34 9 20 C8.67 19.01 8.34 18.02 8 17 C6.35 16.67 4.7 16.34 3 16 Z M-8 18 C-8 18.66 -8 19.32 -8 20 C-7.34 19.67 -6.68 19.34 -6 19 C-6.66 18.67 -7.32 18.34 -8 18 Z M17 19 C18 21 18 21 18 21 Z M13 21 C13.33 21.66 13.66 22.32 14 23 C14.66 22.67 15.32 22.34 16 22 C15.01 21.67 14.02 21.34 13 21 Z M-8 24 C-7.34 24.66 -6.68 25.32 -6 26 C-5.67 25.34 -5.34 24.68 -5 24 C-5.99 24 -6.98 24 -8 24 Z M7 24 C8 26 8 26 8 26 Z M2 27 C1.67 28.32 1.34 29.64 1 31 C1.66 30.67 2.32 30.34 3 30 C2.67 29.01 2.34 28.02 2 27 Z M-2 29 C-2.33 29.66 -2.66 30.32 -3 31 C-2.34 31 -1.68 31 -1 31 C-1.33 30.34 -1.66 29.68 -2 29 Z M10 29 C10 29.66 10 30.32 10 31 C10.66 30.67 11.32 30.34 12 30 C11.34 29.67 10.68 29.34 10 29 Z " fill="#658F94" transform="translate(1147,461)"/>
<path d="M0 0 C1.671549 0.30791692 3.33805547 0.64386903 5 1 C5.99 1 6.98 1 8 1 C10.125 1.375 10.125 1.375 12 2 C12.33 2.66 12.66 3.32 13 4 C13.66 4 14.32 4 15 4 C15 5.32 15 6.64 15 8 C15.99 8.33 16.98 8.66 18 9 C18.984375 10.9609375 18.984375 10.9609375 19.75 13.375 C20.01296875 14.16648437 20.2759375 14.95796875 20.546875 15.7734375 C21 18 21 18 20 21 C18.35 21.33 16.7 21.66 15 22 C15 22.99 15 23.98 15 25 C14.34 25 13.68 25 13 25 C12.67 25.99 12.34 26.98 12 28 C11.34 27.34 10.68 26.68 10 26 C9.13375 25.360625 8.2675 24.72125 7.375 24.0625 C6.199375 23.0415625 6.199375 23.0415625 5 22 C5 20.33333333 5 18.66666667 5 17 C1.41672247 15.99782936 1.41672247 15.99782936 -2 17 C-2 15.68 -2 14.36 -2 13 C-1.01 13 -0.02 13 1 13 C1 11.02 1 9.04 1 7 C2.65 7.33 4.3 7.66 6 8 C3.3333581 6.66667905 1.83319697 7.32897967 -1 8 C-0.67 9.32 -0.34 10.64 0 12 C-0.99 12 -1.98 12 -3 12 C-3 9.69 -3 7.38 -3 5 C-2.34 4.67 -1.68 4.34 -1 4 C-1 3.01 -1 2.02 -1 1 C-0.67 0.67 -0.34 0.34 0 0 Z M7 7 C8 9 8 9 8 9 Z M14 18 C15 20 15 20 15 20 Z M10 20 C10.33 20.66 10.66 21.32 11 22 C11.66 21.67 12.32 21.34 13 21 C12.01 20.67 11.02 20.34 10 20 Z " fill="#4C7C82" transform="translate(1150,462)"/>
<path d="M0 0 C13.86 0 27.72 0 42 0 C42 0.66 42 1.32 42 2 C37.05 2 32.1 2 27 2 C27 23.12 27 44.24 27 66 C25.515 65.01 25.515 65.01 24 64 C24.66 64 25.32 64 26 64 C26 43.87 26 23.74 26 3 C21.05 3 16.1 3 11 3 C7.31119527 2.71349089 3.66780235 2.42702065 0 2 C0 1.34 0 0.68 0 0 Z " fill="#476773" transform="translate(1132,514)"/>
<path d="M0 0 C0.33 0 0.66 0 1 0 C1 21.12 1 42.24 1 64 C5.62 64 10.24 64 15 64 C15 54.1 15 44.2 15 34 C15.66 34 16.32 34 17 34 C17.02465504 38.39656173 17.04283842 42.7930872 17.05493164 47.18969727 C17.05997121 48.68644918 17.06680287 50.18319616 17.07543945 51.67993164 C17.08752159 53.82699807 17.09323191 55.97399962 17.09765625 58.12109375 C17.10551147 60.06133423 17.10551147 60.06133423 17.11352539 62.04077148 C17 65 17 65 16 66 C13.48863896 66.09975032 11.01096585 66.13882183 8.5 66.125 C7.79746094 66.12886719 7.09492187 66.13273438 6.37109375 66.13671875 C1.12661378 66.12661378 1.12661378 66.12661378 0 65 C-0.09409479 62.97505769 -0.11743122 60.9468013 -0.11352539 58.91967773 C-0.11344986 57.61840439 -0.11337433 56.31713104 -0.11329651 54.97642517 C-0.10818909 53.54548098 -0.10297308 52.11453718 -0.09765625 50.68359375 C-0.09579203 49.2277074 -0.09436815 47.77182043 -0.09336853 46.31593323 C-0.08954365 42.47720621 -0.07971364 38.63851681 -0.06866455 34.79980469 C-0.05844978 30.88542184 -0.05387077 26.97103294 -0.04882812 23.05664062 C-0.03809134 15.37107657 -0.02101529 7.68554355 0 0 Z " fill="#87A7AA" transform="translate(890,514)"/>
<path d="M0 0 C0.763125 0.66 1.52625 1.32 2.3125 2 C4.84277939 4.29850538 4.84277939 4.29850538 8 4 C8.66 4 9.32 4 10 4 C10 3.01 10 2.02 10 1 C10.99 0.67 11.98 0.34 13 0 C13.99 0.99 14.98 1.98 16 3 C15.34 3 14.68 3 14 3 C13.9175 3.556875 13.835 4.11375 13.75 4.6875 C12.76104459 7.73677919 11.15242534 9.65189963 9 12 C8.34 12 7.68 12 7 12 C6.67 12.99 6.34 13.98 6 15 C4.68 14.34 3.36 13.68 2 13 C2 14.32 2 15.64 2 17 C1.34 17 0.68 17 0 17 C-0.33 14.36 -0.66 11.72 -1 9 C-1.66 9 -2.32 9 -3 9 C-3.33 7.02 -3.66 5.04 -4 3 C-3.34 3 -2.68 3 -2 3 C-2 2.34 -2 1.68 -2 1 C-1.34 0.67 -0.68 0.34 0 0 Z M-1 2 C0 4 0 4 0 4 Z M2 7 C2 7.66 2 8.32 2 9 C2.66 8.67 3.32 8.34 4 8 C3.34 7.67 2.68 7.34 2 7 Z " fill="#507980" transform="translate(1155,483)"/>
<path d="M0 0 C2.38564077 0.57584432 4.66682784 1.22227595 7 2 C7 2.66 7 3.32 7 4 C6.34 4 5.68 4 5 4 C5.66 5.98 6.32 7.96 7 10 C7.33 8.68 7.66 7.36 8 6 C9.63881402 11.26145553 9.63881402 11.26145553 10 14 C8.875 16.0625 8.875 16.0625 7 17 C5.65737935 16.70630173 4.32303717 16.3721042 3 16 C2.01 16.66 1.02 17.32 0 18 C0 17.34 0 16.68 0 16 C-0.639375 15.87625 -1.27875 15.7525 -1.9375 15.625 C-2.618125 15.41875 -3.29875 15.2125 -4 15 C-4.33 14.34 -4.66 13.68 -5 13 C-5.99 12.67 -6.98 12.34 -8 12 C-8 10.68 -8 9.36 -8 8 C-8.99 7.67 -9.98 7.34 -11 7 C-12.1875 4.4375 -12.1875 4.4375 -13 2 C-8.75105275 2 -7.92695231 2.17397708 -5 5 C-4.3125 7 -4.3125 7 -4 9 C-3.67 9.99 -3.34 10.98 -3 12 C-0.98491642 12.73323796 -0.98491642 12.73323796 1 13 C2.21297649 10.7193293 2.21297649 10.7193293 3 8 C2.23396041 5.7142289 2.23396041 5.7142289 1 4 C1.66 3.67 2.32 3.34 3 3 C2.01 2.67 1.02 2.34 0 2 C0 1.34 0 0.68 0 0 Z " fill="#719599" transform="translate(1146,482)"/>
<path d="M0 0 C30.03 0 60.06 0 91 0 C91 0.33 91 0.66 91 1 C89.02 1 87.04 1 85 1 C85 1.66 85 2.32 85 3 C80.38 3 75.76 3 71 3 C71 2.34 71 1.68 71 1 C47.9 1 24.8 1 1 1 C1 3.97 1 6.94 1 10 C1.99 10.33 2.98 10.66 4 11 C2.02 11.99 2.02 11.99 0 13 C0 8.71 0 4.42 0 0 Z " fill="#5A8896" transform="translate(1028,514)"/>
<path d="M0 0 C0.99 0.33 1.98 0.66 3 1 C3 1.99 3 2.98 3 4 C6.13349732 5.04449911 6.98968256 4.93423645 10 4 C11.0625 5.875 11.0625 5.875 12 8 C11.67 8.66 11.34 9.32 11 10 C8.4375 10.625 8.4375 10.625 6 11 C6 11.99 6 12.98 6 14 C5.34 14 4.68 14 4 14 C3.67 14.99 3.34 15.98 3 17 C2.34 16.34 1.68 15.68 1 15 C0.13375 14.360625 -0.7325 13.72125 -1.625 13.0625 C-2.40875 12.381875 -3.1925 11.70125 -4 11 C-4 10.01 -4 9.02 -4 8 C-3.01 7.67 -2.02 7.34 -1 7 C-1.33 5.02 -1.66 3.04 -2 1 C-1.34 0.67 -0.68 0.34 0 0 Z M5 7 C6 9 6 9 6 9 Z M1 9 C1.33 9.66 1.66 10.32 2 11 C2.66 10.67 3.32 10.34 4 10 C3.01 9.67 2.02 9.34 1 9 Z " fill="#6E9398" transform="translate(1159,473)"/>
<path d="M0 0 C0.12375 0.639375 0.2475 1.27875 0.375 1.9375 C0.58125 2.618125 0.7875 3.29875 1 4 C1.66 4.33 2.32 4.66 3 5 C1.68 5.33 0.36 5.66 -1 6 C-0.67 8.31 -0.34 10.62 0 13 C0.99 13 1.98 13 3 13 C2.67 12.01 2.34 11.02 2 10 C2.33 9.01 2.66 8.02 3 7 C4.32 7 5.64 7 7 7 C6.690625 7.598125 6.38125 8.19625 6.0625 8.8125 C4.89790296 11.08956772 4.89790296 11.08956772 4 14 C3.01 14 2.02 14 1 14 C1.33 15.65 1.66 17.3 2 19 C-1.28976808 20.09658936 -2.71303767 19.79953138 -6 19 C-6 18.01 -6 17.02 -6 16 C-4.02 16.33 -2.04 16.66 0 17 C0 16.34 0 15.68 0 15 C-1.32 15 -2.64 15 -4 15 C-4 13 -4 13 -3 12 C-3 11.34 -3 10.68 -3 10 C-3.66 10 -4.32 10 -5 10 C-5 10.66 -5 11.32 -5 12 C-7 11 -7 11 -8 8 C-8.66 7.67 -9.32 7.34 -10 7 C-8.35 6.67 -6.7 6.34 -5 6 C-5 5.01 -5 4.02 -5 3 C-3.35 2.67 -1.7 2.34 0 2 C0 1.34 0 0.68 0 0 Z " fill="#527F84" transform="translate(1147,461)"/>
<path d="M0 0 C3 1 3 1 4 3 C4.66 3 5.32 3 6 3 C6 4.32 6 5.64 6 7 C6.99 7.33 7.98 7.66 9 8 C10.60769874 10.33116317 11.09530596 11.42816426 10.625 14.25 C10.41875 14.8275 10.2125 15.405 10 16 C10 15.34 10 14.68 10 14 C8.35 14.66 6.7 15.32 5 16 C3.4375 14.875 3.4375 14.875 2 13 C2.2784375 11.5459375 2.2784375 11.5459375 2.5625 10.0625 C2.7790625 8.5465625 2.7790625 8.5465625 3 7 C1.18712805 4.60204619 1.18712805 4.60204619 -1 3 C-0.67 2.01 -0.34 1.02 0 0 Z " fill="#608388" transform="translate(1159,463)"/>
<path d="M0 0 C2 1 4 2 6 3 C6 3.66 6 4.32 6 5 C7.32 5.33 8.64 5.66 10 6 C10 6.66 10 7.32 10 8 C11.32 8.33 12.64 8.66 14 9 C14 9.66 14 10.32 14 11 C14.928125 11.433125 14.928125 11.433125 15.875 11.875 C18 13 18 13 20 15 C20 15.99 20 16.98 20 18 C19.01 18 18.02 18 17 18 C16.67 17.34 16.34 16.68 16 16 C15.01 15.67 14.02 15.34 13 15 C10.8125 13.0625 10.8125 13.0625 9 11 C9 10.34 9 9.68 9 9 C8.443125 8.95875 7.88625 8.9175 7.3125 8.875 C3.705605 7.51022892 2.26961504 5.08919824 0 2 C0 1.34 0 0.68 0 0 Z " fill="#547B7F" transform="translate(759,578)"/>
<path d="M0 0 C1.32 1.32 2.64 2.64 4 4 C3.34 5.65 2.68 7.3 2 9 C3.32 9.66 4.64 10.32 6 11 C6 11.66 6 12.32 6 13 C4.68 13 3.36 13 2 13 C2 14.32 2 15.64 2 17 C1.34 17 0.68 17 0 17 C-0.33 14.36 -0.66 11.72 -1 9 C-1.66 9 -2.32 9 -3 9 C-3.33 7.02 -3.66 5.04 -4 3 C-3.34 3 -2.68 3 -2 3 C-2 2.34 -2 1.68 -2 1 C-1.34 0.67 -0.68 0.34 0 0 Z M-1 2 C0 4 0 4 0 4 Z " fill="#427076" transform="translate(1155,483)"/>
<path d="M0 0 C2.91517292 1.07401108 4.77810176 1.77810176 7 4 C7.5625 5.9375 7.5625 5.9375 8 8 C8.33 8.99 8.66 9.98 9 11 C11.01508358 11.73323796 11.01508358 11.73323796 13 12 C13 12.66 13 13.32 13 14 C11.35 14 9.7 14 8 14 C7.67 13.34 7.34 12.68 7 12 C6.01 11.67 5.02 11.34 4 11 C4 9.68 4 8.36 4 7 C3.01 6.67 2.02 6.34 1 6 C-0.1875 3.4375 -0.1875 3.4375 -1 1 C-0.67 0.67 -0.34 0.34 0 0 Z " fill="#799DA1" transform="translate(1134,483)"/>
<path d="M0 0 C-0.33 0.99 -0.66 1.98 -1 3 C-1.03954234 5.33299825 -1.04401732 7.66708189 -1 10 C-3.67857172 9.63803085 -5.60980914 9.26012724 -7.875 7.75 C-9 6 -9 6 -8.9375 3.4375 C-8 1 -8 1 -6.1875 -0.375 C-3.69465714 -1.08724082 -2.41283832 -0.86172797 0 0 Z M-4 5 C-4.33 5.66 -4.66 6.32 -5 7 C-4.34 7 -3.68 7 -3 7 C-3.33 6.34 -3.66 5.68 -4 5 Z " fill="#538189" transform="translate(1149,485)"/>
<path d="M0 0 C1.32 0 2.64 0 4 0 C3.690625 0.598125 3.38125 1.19625 3.0625 1.8125 C1.89790296 4.08956772 1.89790296 4.08956772 1 7 C0.01 7 -0.98 7 -2 7 C-1.67 8.65 -1.34 10.3 -1 12 C-4.28976808 13.09658936 -5.71303767 12.79953138 -9 12 C-9 11.01 -9 10.02 -9 9 C-6.03 9.495 -6.03 9.495 -3 10 C-3 9.34 -3 8.68 -3 8 C-4.32 8 -5.64 8 -7 8 C-7 5.18337467 -6.06240734 5.06240734 -4 3 C-3.67 3.99 -3.34 4.98 -3 6 C-2.01 6 -1.02 6 0 6 C-0.33 5.01 -0.66 4.02 -1 3 C-0.67 2.01 -0.34 1.02 0 0 Z " fill="#3D6B71" transform="translate(1150,468)"/>
<path d="M0 0 C1.671549 0.30791692 3.33805547 0.64386903 5 1 C5.99 1 6.98 1 8 1 C8 1.66 8 2.32 8 3 C6.68 3.33 5.36 3.66 4 4 C4 4.99 4 5.98 4 7 C2.35 7.33 0.7 7.66 -1 8 C-0.67 9.32 -0.34 10.64 0 12 C-0.99 12 -1.98 12 -3 12 C-3 9.69 -3 7.38 -3 5 C-2.34 4.67 -1.68 4.34 -1 4 C-1 3.01 -1 2.02 -1 1 C-0.67 0.67 -0.34 0.34 0 0 Z " fill="#83A4A8" transform="translate(1150,462)"/>
<path d="M0 0 C0.99 0.33 1.98 0.66 3 1 C3 1.99 3 2.98 3 4 C3.66 4.66 4.32 5.32 5 6 C4.38125 6.28875 3.7625 6.5775 3.125 6.875 C0.86674235 7.93720042 0.86674235 7.93720042 -1 10 C1.475 11.98 1.475 11.98 4 14 C3.67 14.99 3.34 15.98 3 17 C2.34 16.34 1.68 15.68 1 15 C0.13375 14.360625 -0.7325 13.72125 -1.625 13.0625 C-2.40875 12.381875 -3.1925 11.70125 -4 11 C-4 10.01 -4 9.02 -4 8 C-3.01 7.67 -2.02 7.34 -1 7 C-1.33 5.02 -1.66 3.04 -2 1 C-1.34 0.67 -0.68 0.34 0 0 Z " fill="#6E929C" transform="translate(1159,473)"/>
<path d="M0 0 C0.99 0 1.98 0 3 0 C3.99 1.98 4.98 3.96 6 6 C6.33 4.68 6.66 3.36 7 2 C7 2.66 7 3.32 7 4 C7.99 4 8.98 4 10 4 C9.67 4.66 9.34 5.32 9 6 C8.34 5.67 7.68 5.34 7 5 C7 5.66 7 6.32 7 7 C8.32 7.33 9.64 7.66 11 8 C9 9 9 9 5 9 C4.67 9.66 4.34 10.32 4 11 C3.34 9.68 2.68 8.36 2 7 C1.01 7.495 1.01 7.495 0 8 C-0.98120464 4.94736336 -0.98120464 3.05263664 0 0 Z " fill="#6C9296" transform="translate(1136,469)"/>
<path d="M0 0 C0.66 0.33 1.32 0.66 2 1 C0.73542969 2.06927734 0.73542969 2.06927734 -0.5546875 3.16015625 C-1.66213648 4.12682781 -2.7688698 5.09431968 -3.875 6.0625 C-4.43058594 6.52849609 -4.98617187 6.99449219 -5.55859375 7.47460938 C-9.5738133 11.0302556 -10.96101827 13.73275717 -12 19 C-14 16 -14 16 -13.4375 12.5625 C-11.85890853 8.65033854 -10.53712473 7.21070296 -7 5 C-6.34 5 -5.68 5 -5 5 C-5 4.34 -5 3.68 -5 3 C-4.34 3 -3.68 3 -3 3 C-2.67 2.34 -2.34 1.68 -2 1 C-1.34 0.67 -0.68 0.34 0 0 Z " fill="#4C7277" transform="translate(960,541)"/>
<path d="M0 0 C0.66 0 1.32 0 2 0 C2 0.66 2 1.32 2 2 C2.99 1.67 3.98 1.34 5 1 C5 1.66 5 2.32 5 3 C5.99 3.33 6.98 3.66 8 4 C6.75 5.5625 6.75 5.5625 5 7 C3.65737935 6.70630173 2.32303717 6.3721042 1 6 C0.01 6.66 -0.98 7.32 -2 8 C-2 7.34 -2 6.68 -2 6 C-2.66 5.67 -3.32 5.34 -4 5 C-3.01 4.67 -2.02 4.34 -1 4 C-0.26676204 1.98491642 -0.26676204 1.98491642 0 0 Z " fill="#5E8E95" transform="translate(1148,492)"/>
<path d="M0 0 C2.475 0.99 2.475 0.99 5 2 C5.1875 4.375 5.1875 4.375 5 7 C2.08235 8.9451 0.37462715 9.45276317 -3 10 C-3 8.68 -3 7.36 -3 6 C-2.01 6 -1.02 6 0 6 C0 4.02 0 2.04 0 0 Z " fill="#6E969A" transform="translate(1151,469)"/>
<path d="M0 0 C1.32 0 2.64 0 4 0 C5.42944945 2.35438733 6.08661261 3.48032433 5.625 6.25 C5.41875 6.8275 5.2125 7.405 5 8 C5 7.34 5 6.68 5 6 C3.35 6.66 1.7 7.32 0 8 C-0.99 7.01 -1.98 6.02 -3 5 C-2.34 4.34 -1.68 3.68 -1 3 C-1 3.66 -1 4.32 -1 5 C-0.34 5 0.32 5 1 5 C1.33 3.68 1.66 2.36 2 1 C1.34 0.67 0.68 0.34 0 0 Z " fill="#41696E" transform="translate(1164,471)"/>
<path d="M0 0 C2.97 0.495 2.97 0.495 6 1 C6 1.66 6 2.32 6 3 C6.474375 3.45375 6.94875 3.9075 7.4375 4.375 C9.22093737 6.22977487 9.5691993 7.50135592 10 10 C6.82028869 8.62442924 4.95149011 7.10041354 2.75 4.4375 C1.96882812 3.50744141 1.96882812 3.50744141 1.171875 2.55859375 C0 1 0 1 0 0 Z " fill="#5E8185" transform="translate(840,575)"/>
<path d="M0 0 C1.32 1.32 2.64 2.64 4 4 C3.01 5.485 3.01 5.485 2 7 C1.34 5.68 0.68 4.36 0 3 C-0.66 4.98 -1.32 6.96 -2 9 C-4 5.25 -4 5.25 -4 3 C-3.34 3 -2.68 3 -2 3 C-2 2.34 -2 1.68 -2 1 C-1.34 0.67 -0.68 0.34 0 0 Z " fill="#3F6E73" transform="translate(1155,483)"/>
<path d="M0 0 C1.65 0.33 3.3 0.66 5 1 C5 1.66 5 2.32 5 3 C3.68 3.33 2.36 3.66 1 4 C1.99 4.33 2.98 4.66 4 5 C4 5.66 4 6.32 4 7 C2.68 7.33 1.36 7.66 0 8 C-0.98120464 4.94736336 -0.98120464 3.05263664 0 0 Z " fill="#457379" transform="translate(1134,475)"/>
<path d="M0 0 C2 1 4 2 6 3 C6.5625 4.9375 6.5625 4.9375 7 7 C7.33 7.66 7.66 8.32 8 9 C4.20620942 7.50958227 2.31656242 5.30937488 0 2 C0 1.34 0 0.68 0 0 Z " fill="#7F9A9D" transform="translate(759,578)"/>
<path d="M0 0 C0.99 0 1.98 0 3 0 C3.0825 0.598125 3.165 1.19625 3.25 1.8125 C4.20455872 4.5966296 5.57132271 5.43311142 8 7 C7.67 7.99 7.34 8.98 7 10 C6.34 9.34 5.68 8.68 5 8 C3.700625 7.0409375 3.700625 7.0409375 2.375 6.0625 C1.59125 5.381875 0.8075 4.70125 0 4 C0 2.66666667 0 1.33333333 0 0 Z " fill="#96B0B3" transform="translate(1155,480)"/>
<path d="M0 0 C2.625 -0.1875 2.625 -0.1875 5 0 C4 2 4 2 2 4 C2.99 4.99 3.98 5.98 5 7 C2 7 2 7 -0.1875 5 C-0.785625 4.34 -1.38375 3.68 -2 3 C-1.34 2.01 -0.68 1.02 0 0 Z " fill="#4B767B" transform="translate(1159,479)"/>
<path d="M0 0 C0.66 0 1.32 0 2 0 C0.55922954 3.36179774 -1.24750021 5.59156268 -4 8 C-4.66 8 -5.32 8 -6 8 C-5.25 5.5625 -5.25 5.5625 -4 3 C-1.875 2.1875 -1.875 2.1875 0 2 C0 1.34 0 0.68 0 0 Z " fill="#4B777B" transform="translate(1089,521)"/>
<path d="M0 0 C2.475 0.495 2.475 0.495 5 1 C5 1.66 5 2.32 5 3 C6.32 3.66 7.64 4.32 9 5 C5 5 5 5 2.25 2.5 C1.5075 1.675 0.765 0.85 0 0 Z " fill="#3B6A70" transform="translate(764,583)"/>
<path d="M0 0 C1.32 0.33 2.64 0.66 4 1 C2.68 1.33 1.36 1.66 0 2 C0.33 3.98 0.66 5.96 1 8 C-0.32 7.34 -1.64 6.68 -3 6 C-2.01 4.02 -1.02 2.04 0 0 Z " fill="#3B6369" transform="translate(1157,472)"/>
<path d="M0 0 C2.35953094 2.35953094 2.49141413 3.77895617 3 7 C2.01 7.495 2.01 7.495 1 8 C1 7.34 1 6.68 1 6 C0.34 6 -0.32 6 -1 6 C-1.042721 4.33388095 -1.04063832 2.66617115 -1 1 C-0.67 0.67 -0.34 0.34 0 0 Z " fill="#568387" transform="translate(1155,486)"/>
<path d="M0 0 C0.66 0 1.32 0 2 0 C2.33 1.98 2.66 3.96 3 6 C2.01 6.33 1.02 6.66 0 7 C-1.04449911 3.86650268 -0.93423645 3.01031744 0 0 Z " fill="#40676C" transform="translate(1141,486)"/>
<path d="M0 0 C4.875 1.75 4.875 1.75 6 4 C4.68 4.33 3.36 4.66 2 5 C1.01 3.68 0.02 2.36 -1 1 C-0.67 0.67 -0.34 0.34 0 0 Z " fill="#A0B9BD" transform="translate(1134,483)"/>
<path d="M0 0 C1.32 0.66 2.64 1.32 4 2 C3.01 2.495 3.01 2.495 2 3 C2 3.99 2 4.98 2 6 C1.34 6 0.68 6 0 6 C-0.38218767 4.34385343 -0.71395102 2.67542976 -1 1 C-0.67 0.67 -0.34 0.34 0 0 Z " fill="#4E7176" transform="translate(1167,483)"/>
<path d="M0 0 C0.99 0 1.98 0 3 0 C2.67 0.99 2.34 1.98 2 3 C2.38932856 5.14255793 2.38932856 5.14255793 3 7 C2.01 7 1.02 7 0 7 C0 4.69 0 2.38 0 0 Z " fill="#71979B" transform="translate(1147,467)"/>
</svg>
